<svg viewBox="96 -2 28 19" fill="none" xmlns="http://www.w3.org/2000/svg">
  <path d="M109.665 13.778C109.559 13.9672 109.312 14.0211 109.136 13.8933L102.997 9.4286C102.903 9.36023 102.848 9.25111 102.848 9.13509V3.75391C102.848 3.45764 103.184 3.28637 103.424 3.4604L107.178 6.19105C107.529 6.44657 108.024 6.33815 108.237 5.96039L111.347 0.432106C111.411 0.318157 111.532 0.247025 111.663 0.247025H116.656C116.934 0.247025 117.109 0.546056 116.973 0.787767L109.665 13.7773V13.778Z" fill="#22FF84"/>
  <path d="M100.097 0.0012C97.148 4.222 97.131 10.765 100.097 15.001H102.089C99.124 10.765 99.141 4.222 102.089 0.0012H100.097Z" fill="#FCC72B"/>
  <path d="M120.109 0.001H118.116C121.065 4.222 121.082 10.765 118.116 15.001H120.109C123.074 10.765 123.057 4.222 120.109 0.001Z" fill="#FCC72B"/>
</svg>
